<?xml version="1.0" standalone="no"?>
<!DOCTYPE svg PUBLIC "-//W3C//DTD SVG 20010904//EN"
 "http://www.w3.org/TR/2001/REC-SVG-20010904/DTD/svg10.dtd">
<svg version="1.0" xmlns="http://www.w3.org/2000/svg"
 width="690.000000pt" height="765.000000pt" viewBox="0 0 690.000000 765.000000"
 preserveAspectRatio="xMidYMid meet">

<g transform="translate(0.000000,765.000000) scale(0.100000,-0.100000)"
fill="#fff" stroke="none">
<path d="M4709 5547 c-100 -28 -200 -111 -245 -203 -78 -159 -43 -338 88 -459
79 -73 146 -98 263 -98 80 -1 98 3 157 30 83 39 154 108 194 188 26 55 29 69
29 165 0 93 -3 112 -27 162 -63 134 -186 217 -332 224 -48 2 -100 -1 -127 -9z"/>
<path d="M2990 5379 c-341 -55 -573 -180 -709 -383 -62 -93 -84 -142 -111
-251 -20 -78 -22 -107 -17 -230 6 -162 20 -225 79 -345 72 -147 224 -279 408
-354 190 -78 411 -110 700 -103 333 9 532 63 731 198 125 84 246 248 292 394
59 187 43 411 -43 590 -131 272 -364 419 -762 480 -108 17 -473 19 -568 4z
m383 -105 c111 -38 189 -154 229 -344 20 -94 22 -134 22 -380 0 -247 -3 -286
-23 -380 -50 -232 -149 -347 -308 -358 -206 -14 -330 149 -364 478 -17 162 -5
553 19 660 39 166 106 269 207 316 60 29 149 32 218 8z"/>
<path d="M2348 3750 c-138 -23 -260 -125 -298 -246 -69 -226 -1 -445 184 -589
97 -75 231 -122 411 -144 56 -7 312 -11 682 -11 605 0 690 -4 813 -40 237 -70
318 -258 210 -486 -91 -189 -382 -357 -735 -423 -303 -56 -592 -35 -894 65
-87 29 -88 30 -43 76 85 85 131 222 111 332 -23 130 -104 239 -215 292 -52 24
-71 28 -159 28 -92 1 -105 -2 -159 -29 -180 -90 -278 -303 -217 -466 67 -176
263 -301 591 -379 356 -83 858 -78 1229 14 318 78 550 245 657 471 66 139 78
207 78 425 0 171 -3 205 -23 275 -89 317 -301 502 -631 551 -73 10 -234 14
-687 14 -383 0 -611 4 -645 11 -138 28 -198 75 -198 155 0 25 7 58 15 74 9 17
11 30 6 30 -5 0 -15 2 -23 4 -7 2 -34 0 -60 -4z"/>
</g>
</svg>
