<?xml version="1.0" standalone="no"?>
<!DOCTYPE svg PUBLIC "-//W3C//DTD SVG 20010904//EN"
 "http://www.w3.org/TR/2001/REC-SVG-20010904/DTD/svg10.dtd">
<svg version="1.0" xmlns="http://www.w3.org/2000/svg"
 width="708.000000pt" height="584.000000pt" viewBox="0 0 708.000000 584.000000"
 preserveAspectRatio="xMidYMid meet">

<g transform="translate(0.000000,584.000000) scale(0.100000,-0.100000)"
fill="#E45F35" stroke="none">
<path d="M2493 4453 c-153 -245 -438 -702 -1263 -2028 -75 -121 -205 -329
-288 -463 -84 -134 -152 -248 -152 -253 0 -5 51 -9 114 -9 125 0 131 2 163 63
9 18 31 54 48 82 18 27 85 136 150 240 65 105 140 226 168 270 88 140 141 225
262 420 65 105 139 224 165 265 26 41 123 197 215 345 557 896 591 950 601
950 5 -1 59 -82 121 -180 62 -99 129 -207 150 -240 21 -32 43 -68 49 -80 6
-11 26 -45 46 -75 57 -88 364 -583 377 -607 10 -20 -8 -54 -177 -325 -104
-167 -309 -496 -456 -732 -148 -238 -263 -433 -258 -438 4 -4 865 -7 1913 -6
1685 3 1904 5 1903 18 -1 14 -179 302 -969 1570 -768 1234 -917 1473 -922
1486 -13 33 35 106 -602 -921 -151 -242 -279 -446 -286 -453 -12 -13 -88 105
-685 1068 -100 162 -188 301 -195 308 -10 11 -46 -40 -192 -275z m2021 -226
c38 -61 142 -229 231 -372 89 -143 237 -381 330 -530 92 -148 189 -304 215
-345 26 -41 65 -104 87 -140 22 -36 98 -157 168 -270 70 -113 146 -234 168
-270 44 -71 102 -164 194 -310 32 -52 62 -103 66 -112 6 -17 -34 -18 -747 -18
l-753 0 -135 218 c-75 119 -245 393 -378 607 -134 215 -251 404 -261 420 -18
30 -18 31 13 80 17 28 48 77 68 110 54 87 561 902 627 1008 13 20 27 37 31 37
4 0 38 -51 76 -113z m-854 -1457 c45 -74 98 -159 117 -188 19 -29 42 -68 52
-85 21 -37 220 -356 291 -467 26 -41 60 -96 75 -122 l27 -48 -661 0 c-501 0
-661 3 -661 12 0 6 17 39 39 72 21 34 114 183 206 331 92 149 189 304 215 345
26 41 80 128 120 193 58 94 76 115 85 105 6 -7 49 -74 95 -148z"/>
</g>
</svg>
